<mxfile host="app.diagrams.net" modified="2021-01-06T09:05:30.618Z" agent="5.0 (X11)" etag="I9rg19hmJZy7ntNBp4Oq" version="14.1.8" type="github">
  <diagram id="UJxmHR6WT6YS1NtjRbYA" name="Page-1">
    <mxGraphModel dx="981" dy="554" grid="1" gridSize="10" guides="1" tooltips="1" connect="1" arrows="1" fold="1" page="1" pageScale="1" pageWidth="850" pageHeight="1100" math="0" shadow="0">
      <root>
        <mxCell id="0" />
        <mxCell id="1" parent="0" />
        <mxCell id="TOR6Eeiyw65Fs5_zLl3i-1" value="EmployeeHome&#xa;PageView" style="shape=umlLifeline;perimeter=lifelinePerimeter;container=1;collapsible=0;recursiveResize=0;rounded=0;shadow=0;strokeWidth=1;" vertex="1" parent="1">
          <mxGeometry x="150" y="110" width="100" height="300" as="geometry" />
        </mxCell>
        <mxCell id="TOR6Eeiyw65Fs5_zLl3i-2" value="" style="points=[];perimeter=orthogonalPerimeter;rounded=0;shadow=0;strokeWidth=1;" vertex="1" parent="TOR6Eeiyw65Fs5_zLl3i-1">
          <mxGeometry x="45" y="70" width="10" height="190" as="geometry" />
        </mxCell>
        <mxCell id="TOR6Eeiyw65Fs5_zLl3i-3" value="ProfileController" style="shape=umlLifeline;perimeter=lifelinePerimeter;container=1;collapsible=0;recursiveResize=0;rounded=0;shadow=0;strokeWidth=1;" vertex="1" parent="1">
          <mxGeometry x="300" y="110" width="100" height="300" as="geometry" />
        </mxCell>
        <mxCell id="TOR6Eeiyw65Fs5_zLl3i-4" value="" style="points=[];perimeter=orthogonalPerimeter;rounded=0;shadow=0;strokeWidth=1;" vertex="1" parent="TOR6Eeiyw65Fs5_zLl3i-3">
          <mxGeometry x="45" y="80" width="10" height="160" as="geometry" />
        </mxCell>
        <mxCell id="TOR6Eeiyw65Fs5_zLl3i-5" value="Employee" style="shape=umlActor;verticalLabelPosition=bottom;verticalAlign=top;html=1;outlineConnect=0;" vertex="1" parent="1">
          <mxGeometry x="20" y="100" width="30" height="60" as="geometry" />
        </mxCell>
        <mxCell id="TOR6Eeiyw65Fs5_zLl3i-6" value="Database" style="shape=umlLifeline;perimeter=lifelinePerimeter;container=1;collapsible=0;recursiveResize=0;rounded=0;shadow=0;strokeWidth=1;" vertex="1" parent="1">
          <mxGeometry x="460" y="110" width="100" height="300" as="geometry" />
        </mxCell>
        <mxCell id="TOR6Eeiyw65Fs5_zLl3i-7" value="" style="points=[];perimeter=orthogonalPerimeter;rounded=0;shadow=0;strokeWidth=1;" vertex="1" parent="TOR6Eeiyw65Fs5_zLl3i-6">
          <mxGeometry x="45" y="80" width="10" height="160" as="geometry" />
        </mxCell>
        <mxCell id="TOR6Eeiyw65Fs5_zLl3i-8" value="click on manage profile button" style="verticalAlign=bottom;endArrow=block;shadow=0;strokeWidth=1;" edge="1" parent="1" source="TOR6Eeiyw65Fs5_zLl3i-9" target="TOR6Eeiyw65Fs5_zLl3i-2">
          <mxGeometry relative="1" as="geometry">
            <mxPoint x="175" y="560" as="sourcePoint" />
            <mxPoint x="200" y="220" as="targetPoint" />
            <Array as="points">
              <mxPoint x="90" y="220" />
            </Array>
          </mxGeometry>
        </mxCell>
        <mxCell id="TOR6Eeiyw65Fs5_zLl3i-9" value="" style="points=[];perimeter=orthogonalPerimeter;rounded=0;shadow=0;strokeWidth=1;" vertex="1" parent="1">
          <mxGeometry x="30" y="190" width="10" height="190" as="geometry" />
        </mxCell>
        <mxCell id="TOR6Eeiyw65Fs5_zLl3i-10" value="new ProfilePanel()" style="verticalAlign=bottom;endArrow=block;shadow=0;strokeWidth=1;" edge="1" parent="1" source="TOR6Eeiyw65Fs5_zLl3i-2" target="TOR6Eeiyw65Fs5_zLl3i-4">
          <mxGeometry relative="1" as="geometry">
            <mxPoint x="175" y="560" as="sourcePoint" />
            <mxPoint x="300" y="490" as="targetPoint" />
            <Array as="points">
              <mxPoint x="300" y="240" />
            </Array>
          </mxGeometry>
        </mxCell>
        <mxCell id="TOR6Eeiyw65Fs5_zLl3i-11" value="getEmployeeInfo()" style="verticalAlign=bottom;endArrow=block;shadow=0;strokeWidth=1;" edge="1" parent="1" source="TOR6Eeiyw65Fs5_zLl3i-4" target="TOR6Eeiyw65Fs5_zLl3i-7">
          <mxGeometry relative="1" as="geometry">
            <mxPoint x="355" y="280" as="sourcePoint" />
            <mxPoint x="495" y="280" as="targetPoint" />
            <Array as="points">
              <mxPoint x="440" y="260" />
            </Array>
          </mxGeometry>
        </mxCell>
        <mxCell id="TOR6Eeiyw65Fs5_zLl3i-12" value="employeeInfo" style="verticalAlign=bottom;endArrow=open;dashed=1;endSize=8;shadow=0;strokeWidth=1;" edge="1" parent="1" source="TOR6Eeiyw65Fs5_zLl3i-7" target="TOR6Eeiyw65Fs5_zLl3i-4">
          <mxGeometry relative="1" as="geometry">
            <mxPoint x="330" y="560" as="targetPoint" />
            <mxPoint x="420" y="580" as="sourcePoint" />
            <Array as="points">
              <mxPoint x="410" y="300" />
            </Array>
          </mxGeometry>
        </mxCell>
        <mxCell id="TOR6Eeiyw65Fs5_zLl3i-13" value="ProfilePopupPanel" style="verticalAlign=bottom;endArrow=open;dashed=1;endSize=8;shadow=0;strokeWidth=1;" edge="1" parent="1" source="TOR6Eeiyw65Fs5_zLl3i-4" target="TOR6Eeiyw65Fs5_zLl3i-2">
          <mxGeometry relative="1" as="geometry">
            <mxPoint x="200" y="310" as="targetPoint" />
            <mxPoint x="350" y="310" as="sourcePoint" />
            <Array as="points">
              <mxPoint x="255" y="310" />
            </Array>
          </mxGeometry>
        </mxCell>
      </root>
    </mxGraphModel>
  </diagram>
</mxfile>
